Coordinates
version=1
nRows=18
nColumns=33
inDegrees=yes

Units are S.I. units (second, meters, Newtons, ...)
Angles are in degrees.

endheader
time	ground_thorax_rot_x	ground_thorax_rot_y	ground_thorax_rot_z	ground_thorax_tx	ground_thorax_ty	ground_thorax_tz	clav_prot_r	clav_elev_r	scapula_abduction_r	scapula_elevation_r	scapula_upward_rot_r	scapula_winging_r	shoulder_elv_r	plane_of_elev_r	axial_rot_r	elbow_flexion_r	pro_sup_r	wrist_flex_r	wrist_dev_r	clav_prot_l	clav_elev_l	scapula_abduction_l	scapula_elevation_l	scapula_upward_rot_l	scapula_winging_l	shoulder_elv_l	plane_of_elev_l	axial_rot_l	elbow_flexion_l	pro_sup_l	wrist_flex_l	wrist_dev_l	
2.0100	1.326670	-0.869080	-7.511454	-0.077240	1.052518	-0.003057	-12.511135	-7.973836	-11.131507	-2.497342	8.265016	0.022852	57.653309	-45.187438	64.365156	67.158611	7.767090	17.021114	11.428141	-5.146051	-5.599193	2.578869	-3.146831	-4.189981	-0.757323	60.745738	-53.701913	-47.391159	67.799008	5.152207	3.148882	-24.996159	
2.0200	1.336030	-0.888621	-7.598219	-0.077126	1.052462	-0.003049	-12.499414	-7.778851	-10.940873	-2.452762	8.666563	-0.147384	58.295539	-45.160514	64.864422	68.433076	7.954018	17.094024	11.746048	-5.122686	-5.459001	2.452555	-3.162471	-3.887722	-0.644668	61.199065	-53.891128	-47.710508	68.854335	5.007157	3.174613	-24.998115	
2.0300	1.351810	-0.911106	-7.691978	-0.076965	1.052442	-0.003018	-12.500230	-7.602025	-10.762767	-2.427590	9.077044	-0.310484	59.018367	-45.106211	65.398317	69.790289	8.142760	17.122608	12.150398	-5.109599	-5.344360	2.336702	-3.152353	-3.578900	-0.540464	61.699271	-54.085180	-48.054354	69.960517	4.818294	3.199170	-24.996624	
2.0400	1.371564	-0.936370	-7.782177	-0.076764	1.052451	-0.002974	-12.510386	-7.439393	-10.599399	-2.413720	9.482927	-0.465215	59.815364	-45.012698	65.958521	71.216010	8.333172	17.110621	12.646745	-5.103938	-5.248300	2.230625	-3.126151	-3.272358	-0.443946	62.240229	-54.273959	-48.420712	71.103829	4.570504	3.221922	-24.993951	
2.0500	1.389711	-0.961474	-7.863170	-0.076522	1.052488	-0.002920	-12.528065	-7.294507	-10.458396	-2.407076	9.862225	-0.605946	60.676202	-44.872320	66.521741	72.692312	8.526815	17.074328	13.206706	-5.105265	-5.165828	2.137392	-3.091507	-2.976276	-0.355801	62.817949	-54.447094	-48.801538	72.267579	4.227010	3.241352	-24.989171	
2.0600	1.405199	-0.985778	-7.937879	-0.076246	1.052550	-0.002857	-12.548817	-7.165515	-10.331867	-2.406258	10.216140	-0.734179	61.574035	-44.684345	67.068363	74.195128	8.709742	17.026815	13.798496	-5.110102	-5.093971	2.051169	-3.050962	-2.690130	-0.273562	63.414849	-54.591068	-49.183169	73.434274	3.787459	3.257631	-24.980582	
2.0700	1.407549	-1.006498	-8.014692	-0.075948	1.052607	-0.002787	-12.565311	-7.037861	-10.210410	-2.397647	10.543773	-0.856715	62.436684	-44.446754	67.538543	75.679677	8.843563	17.010988	14.337781	-5.113529	-5.007995	1.965774	-3.025127	-2.408752	-0.188350	63.992703	-54.676447	-49.521040	74.585909	3.252664	3.267098	-24.965275	
2.0800	1.396398	-1.021998	-8.084360	-0.075649	1.052642	-0.002717	-12.568052	-6.893658	-10.074067	-2.369336	10.858641	-0.984859	63.219076	-44.172656	67.915609	77.114933	8.897451	17.044444	14.785744	-5.107593	-4.892669	1.868059	-3.025976	-2.127048	-0.092061	64.517718	-54.691995	-49.798537	75.705388	2.625011	3.272025	-24.937638	
2.0900	1.383492	-1.032302	-8.144166	-0.075340	1.052670	-0.002646	-12.558348	-6.742613	-9.922014	-2.330847	11.163167	-1.115462	63.945758	-43.876418	68.206434	78.502342	8.857424	17.111032	15.151247	-5.094287	-4.767990	1.759319	-3.036828	-1.848765	0.008838	64.981069	-54.645789	-50.018232	76.777234	1.832129	3.273715	-24.888737	
2.1000	1.368795	-1.037315	-8.184731	-0.075018	1.052715	-0.002577	-12.537593	-6.605632	-9.756021	-2.299239	11.451880	-1.238849	64.641631	-43.577275	68.430767	79.846709	8.703293	17.168695	15.452332	-5.075452	-4.651102	1.639899	-3.042278	-1.574290	0.109794	65.398920	-54.557210	-50.214374	77.797380	0.758532	3.278187	-24.799452	
2.1100	1.351037	-1.037026	-8.210514	-0.074672	1.052774	-0.002505	-12.511015	-6.487520	-9.583940	-2.279023	11.725068	-1.352631	65.293596	-43.275345	68.572425	81.137774	8.437978	17.213613	15.685241	-5.055378	-4.548108	1.516491	-3.037089	-1.304393	0.207467	65.767236	-54.419645	-50.372767	78.756251	-0.555387	3.278138	-24.673346	
2.1200	1.322749	-1.031045	-8.225781	-0.074306	1.052840	-0.002432	-12.479820	-6.388007	-9.409736	-2.268941	11.979410	-1.455726	65.869555	-42.964419	68.609817	82.358405	8.057539	17.240090	15.837884	-5.035618	-4.453642	1.393377	-3.026422	-1.040146	0.301996	66.079266	-54.217682	-50.476277	79.652723	-2.053980	3.261679	-24.496673	
2.1300	1.296271	-1.020816	-8.237265	-0.073910	1.052915	-0.002356	-12.449763	-6.307528	-9.236030	-2.273763	12.227996	-1.550136	66.374805	-42.643173	68.546297	83.508551	7.581980	17.241588	15.929754	-5.020095	-4.386107	1.275988	-2.995323	-0.786341	0.386268	66.324110	-53.943666	-50.507659	80.477919	-3.624410	3.215067	-24.268758	
2.1400	1.271181	-1.011723	-8.262018	-0.073513	1.052972	-0.002295	-12.406874	-6.234944	-9.047525	-2.279472	12.459125	-1.639362	66.768276	-42.295735	68.335552	84.561940	6.918486	17.190313	15.916131	-5.003637	-4.326394	1.164222	-2.965636	-0.555579	0.463493	66.450634	-53.557126	-50.418958	81.238756	-5.394063	3.108455	-23.878587	
2.1500	1.249659	-0.998142	-8.295248	-0.073130	1.052995	-0.002250	-12.352804	-6.153510	-8.841999	-2.276182	12.688398	-1.733377	67.011299	-41.925810	67.967734	85.488854	6.022507	17.101847	15.795092	-4.982893	-4.264212	1.052117	-2.944878	-0.342889	0.538724	66.442506	-53.039051	-50.214842	81.917853	-7.310711	2.937238	-23.350859	
2.1600	1.239731	-0.979144	-8.337075	-0.072762	1.053003	-0.002224	-12.285903	-6.071283	-8.620038	-2.268136	12.906779	-1.827282	67.120710	-41.530827	67.448909	86.285317	4.907169	16.966013	15.576314	-4.958207	-4.215587	0.939876	-2.920986	-0.154664	0.606349	66.299690	-52.389922	-49.897398	82.501297	-9.372492	2.706642	-22.680234	
2.1700	1.241851	-0.957022	-8.372701	-0.072415	1.053004	-0.002211	-12.208092	-5.995093	-8.387973	-2.259123	13.106610	-1.916698	67.116043	-41.102750	66.805670	86.949596	3.616914	16.782884	15.287562	-4.929799	-4.189748	0.827099	-2.886451	0.006857	0.663894	66.050635	-51.627136	-49.495599	82.971192	-11.493051	2.440787	-21.929195	
2.1800	1.252335	-0.935389	-8.409020	-0.072094	1.053020	-0.002212	-12.116887	-5.949340	-8.152214	-2.261952	13.259921	-1.986189	67.020142	-40.624700	66.039294	87.478096	2.191409	16.529215	14.939995	-4.896826	-4.199500	0.713674	-2.833104	0.132613	0.706572	65.714588	-50.759876	-49.009312	83.320705	-13.695119	2.153663	-21.077825	
